<?xml version="1.0" encoding="UTF-8" standalone="no"?>
<svg
   xmlns:dc="http://purl.org/dc/elements/1.1/"
   xmlns:cc="http://creativecommons.org/ns#"
   xmlns:rdf="http://www.w3.org/1999/02/22-rdf-syntax-ns#"
   xmlns:svg="http://www.w3.org/2000/svg"
   xmlns="http://www.w3.org/2000/svg"
   xmlns:xlink="http://www.w3.org/1999/xlink"
   xmlns:sodipodi="http://sodipodi.sourceforge.net/DTD/sodipodi-0.dtd"
   xmlns:inkscape="http://www.inkscape.org/namespaces/inkscape"
   width="220"
   height="74"
   viewBox="0 0 220 74"
   version="1.1"
   id="svg11"
   sodipodi:docname="LIB_easydb_api_logo.svg"
   inkscape:version="0.92.5 (2060ec1f9f, 2020-04-08)">
  <metadata
     id="metadata15">
    <rdf:RDF>
      <cc:Work
         rdf:about="">
        <dc:format>image/svg+xml</dc:format>
        <dc:type
           rdf:resource="http://purl.org/dc/dcmitype/StillImage" />
        <dc:title>easydb_logo</dc:title>
      </cc:Work>
    </rdf:RDF>
  </metadata>
  <sodipodi:namedview
     pagecolor="#ffffff"
     bordercolor="#666666"
     borderopacity="1"
     objecttolerance="10"
     gridtolerance="10"
     guidetolerance="10"
     inkscape:pageopacity="0"
     inkscape:pageshadow="2"
     inkscape:window-width="1870"
     inkscape:window-height="1136"
     id="namedview13"
     showgrid="false"
     inkscape:zoom="1.8249594"
     inkscape:cx="-2.8091551"
     inkscape:cy="141.498"
     inkscape:window-x="50"
     inkscape:window-y="27"
     inkscape:window-maximized="1"
     inkscape:current-layer="svg11" />
  <!-- Generator: Sketch 50.2 (55047) - http://www.bohemiancoding.com/sketch -->
  <title
     id="title2">easydb_logo</title>
  <desc
     id="desc4">Created with Sketch.</desc>
  <path
     style="opacity:0.47000002;fill:#384256;fill-opacity:1;stroke:none;stroke-width:0.00259329"
     id="path1663-2-2"
     d="m 58.474783,29.077693 c -0.194501,0.495318 -0.420105,1.109932 -0.650916,1.763446 l -0.254128,0.720942 h -0.316357 c -0.599056,0 -1.511903,0.121889 -2.043527,0.274893 -0.181515,0.05185 -0.334529,0.09077 -0.339718,0.08557 -0.0026,-0.0053 -0.09334,-0.132272 -0.199676,-0.282672 -0.363053,-0.518661 -1.478183,-2.048712 -1.491153,-2.048712 -0.02604,0 -0.469389,0.17634 -0.567932,0.228188 -0.05706,0.02838 -0.191897,0.09334 -0.298229,0.145225 -0.106332,0.04928 -0.311183,0.158179 -0.453831,0.243778 -0.142621,0.083 -0.383798,0.225617 -0.536809,0.316391 -0.272289,0.160783 -0.648333,0.430481 -0.88691,0.635359 l -0.119285,0.106332 0.311183,0.671665 c 0.173736,0.370835 0.443455,0.951743 0.601647,1.29147 l 0.287847,0.617205 -0.197073,0.199676 c -0.508292,0.518658 -1.122902,1.325179 -1.330364,1.750479 -0.0415,0.083 -0.08299,0.147829 -0.09595,0.147829 -0.01035,0 -0.378614,-0.06223 -0.81689,-0.14005 -0.853197,-0.1504 -2.004624,-0.334529 -2.015,-0.321566 -0.0207,0.0207 -0.267114,0.643138 -0.363057,0.915441 -0.132238,0.378614 -0.350089,1.447058 -0.44086,2.178373 l -0.01569,0.129667 1.3174,0.505692 1.317398,0.505698 0.0053,0.246348 c 0.01035,0.443458 0.05966,0.98805 0.114111,1.268125 0.02838,0.1504 0.07001,0.36565 0.09077,0.474576 0.0207,0.111506 0.06744,0.3008 0.101123,0.422699 0.03632,0.121889 0.06483,0.23857 0.06483,0.259336 0,0.01803 -0.241174,0.207455 -0.536809,0.417511 -0.29823,0.210059 -0.811706,0.580901 -1.143651,0.824676 -0.539407,0.394175 -0.601647,0.448639 -0.588677,0.500503 0.05706,0.228221 0.560149,1.203294 0.897282,1.742704 0.191898,0.3008 0.578304,0.855791 0.684632,0.980267 l 0.07779,0.08817 0.453827,-0.210059 c 0.446049,-0.210059 1.908671,-0.879127 2.064273,-0.946555 l 0.07779,-0.03629 0.350087,0.32417 c 0.43827,0.409736 0.656108,0.573122 1.249969,0.936182 0.357868,0.217838 0.471985,0.300834 0.466794,0.337123 -0.0026,0.02604 -0.05705,0.368242 -0.121889,0.759839 -0.11411,0.689817 -0.3008,1.939793 -0.3008,2.004624 0,0.01803 0.03889,0.04667 0.08557,0.06744 0.583495,0.233395 1.104747,0.394175 1.854213,0.570528 0.500507,0.119285 1.226637,0.243778 1.252567,0.215234 0.04667,-0.05188 0.676854,-1.708988 0.920622,-2.409184 l 0.09855,-0.293055 h 0.394171 c 0.679448,0 1.159212,-0.06744 1.846435,-0.26451 0.316391,-0.08817 0.378617,-0.09855 0.407141,-0.07001 0.01803,0.0207 0.396769,0.549783 0.842825,1.177363 0.446048,0.627581 0.8143,1.146239 0.819481,1.148836 0.0077,0.01035 0.236,-0.09595 0.936186,-0.440864 0.290451,-0.142621 0.630171,-0.337123 0.894688,-0.510879 0.37602,-0.248953 0.858388,-0.604241 0.98805,-0.728718 0.04667,-0.0415 0.03889,-0.06483 -0.21006,-0.624986 -0.142621,-0.318961 -0.412326,-0.907658 -0.596462,-1.307028 l -0.337123,-0.723532 0.303404,-0.32674 c 0.414921,-0.440861 0.790961,-0.954334 1.05029,-1.431501 0.06483,-0.124493 0.129668,-0.230792 0.14005,-0.236 0.01035,-0.0053 0.246349,0.02838 0.52385,0.07522 1.449656,0.243778 2.289889,0.376023 2.318413,0.365651 0.05706,-0.02337 0.46161,-1.17477 0.573123,-1.626006 0.0207,-0.09334 0.05185,-0.194502 0.06483,-0.225617 0.02337,-0.05445 0.189294,-0.990644 0.217838,-1.231821 l 0.01569,-0.121889 -0.124493,-0.05445 c -0.160735,-0.07262 -1.24472,-0.482345 -1.981216,-0.752054 l -0.591274,-0.215234 v -0.404547 c 0,-0.464204 -0.02604,-0.728721 -0.106332,-1.161803 -0.04667,-0.256731 -0.173736,-0.814296 -0.220408,-0.972485 -0.01035,-0.03105 0.11411,-0.132272 0.487539,-0.399363 0.562747,-0.401954 1.802343,-1.325179 1.823095,-1.361486 0.01803,-0.02838 -0.158178,-0.443454 -0.370835,-0.866163 -0.3008,-0.604241 -0.689823,-1.213667 -1.099559,-1.729734 l -0.199677,-0.251557 -0.344901,0.1504 c -0.477167,0.210059 -1.244782,0.56275 -1.781598,0.822075 L 63.329695,34.18133 62.9822,33.851986 c -0.368242,-0.347496 -0.814297,-0.695005 -1.112526,-0.871352 -0.155608,-0.09077 -0.474573,-0.300833 -0.539411,-0.355274 -0.01035,-0.01035 0.02838,-0.318962 0.08557,-0.689814 0.29045,-1.851626 0.339713,-2.168007 0.331948,-2.175786 -0.0053,-0.0026 -0.189294,-0.07522 -0.409732,-0.160782 -0.466795,-0.181515 -1.034732,-0.370836 -1.117715,-0.370836 -0.03105,0 -0.121889,-0.02337 -0.20228,-0.04928 -0.207455,-0.07261 -1.26553,-0.285242 -1.41594,-0.287846 -0.0415,0 -0.06744,0.0415 -0.127064,0.186723 z m -0.469385,6.802237 c 0.715751,0.127063 1.462623,0.47717 2.002033,0.941373 0.63795,0.549777 1.192918,1.553387 1.343331,2.42733 0.05705,0.329344 0.05185,0.899879 -0.01035,1.265533 -0.114111,0.661296 -0.399363,1.361489 -0.73909,1.810128 -0.599057,0.796146 -1.636376,1.421132 -2.645174,1.594882 -0.295626,0.04928 -0.866164,0.04928 -1.177364,0 -0.591274,-0.09595 -1.260345,-0.337124 -1.675272,-0.604238 -0.923216,-0.596459 -1.607848,-1.620818 -1.820498,-2.728156 -0.06223,-0.329344 -0.06223,-0.928407 0,-1.283685 0.233396,-1.319991 0.853197,-2.235431 1.973502,-2.920064 0.295625,-0.181515 0.759835,-0.368241 1.11512,-0.453827 0.50051,-0.119285 1.138463,-0.137447 1.633785,-0.04928 z"
     inkscape:connector-curvature="0" />
  <path
     style="fill:#008669;fill-opacity:1;stroke:none;stroke-width:0.00259329"
     id="path1665-9-7"
     d="m 57.071807,36.403779 c -0.557559,0.06483 -0.873946,0.160783 -1.335552,0.399363 -0.907655,0.469392 -1.44966,1.15143 -1.724546,2.173192 -0.129668,0.47717 -0.1504,0.624986 -0.153004,1.013983 0,0.368241 0.0415,0.65351 0.142621,0.962112 0.06223,0.191898 0.282672,0.671666 0.308612,0.671666 0.0077,0 0.08817,0.108902 0.173737,0.23857 0.383802,0.578307 0.920621,1.008795 1.579323,1.265533 1.312209,0.513477 2.689256,0.243779 3.726578,-0.726123 0.466795,-0.435679 0.850607,-1.130684 0.980271,-1.768637 0.178945,-0.889503 0.03105,-1.721955 -0.448639,-2.525879 -0.516071,-0.868758 -1.19033,-1.358892 -2.225059,-1.61563 -0.347496,-0.08557 -0.757248,-0.121889 -1.024356,-0.08817 z m 0.894691,0.969895 c 0.809112,0.20228 1.379637,0.676857 1.76604,1.46522 0.17634,0.36565 0.215234,0.554967 0.215234,1.060659 0,0.51607 -0.03889,0.700196 -0.233396,1.099566 -0.142621,0.298229 -0.29045,0.508285 -0.505694,0.723529 -0.75206,0.739093 -1.626003,0.954334 -2.655547,0.653517 -0.669071,-0.194502 -1.198102,-0.656111 -1.543014,-1.345928 -0.329344,-0.658699 -0.360462,-1.485966 -0.08557,-2.116137 0.272289,-0.612022 0.749463,-1.099566 1.361483,-1.387419 0.562746,-0.26451 1.058068,-0.308612 1.680463,-0.153004 z"
     inkscape:connector-curvature="0" />
  <defs
     id="defs6">
    <clipPath
       id="SVGID_2_">
      <use
         height="100%"
         width="100%"
         y="0"
         x="0"
         id="use9"
         style="overflow:visible"
         xlink:href="#SVGID_1_" />
    </clipPath>
    <clipPath
       id="SVGID_4_">
      <use
         height="100%"
         width="100%"
         y="0"
         x="0"
         id="use21"
         style="overflow:visible"
         xlink:href="#SVGID_3_" />
    </clipPath>
    <clipPath
       id="SVGID_6_">
      <use
         height="100%"
         width="100%"
         y="0"
         x="0"
         id="use33"
         style="overflow:visible"
         xlink:href="#SVGID_5_" />
    </clipPath>
    <rect
       height="44.799999"
       width="37.299999"
       y="1.4"
       x="1.9"
       id="SVGID_1_" />
    <rect
       height="44.799999"
       width="37.299999"
       y="1.4"
       x="1.9"
       id="SVGID_3_" />
    <rect
       height="44.799999"
       width="37.299999"
       y="1.4"
       x="1.9"
       id="SVGID_5_" />
    <clipPath
       id="SVGID_2_-3">
      <use
         height="100%"
         width="100%"
         y="0"
         x="0"
         xlink:href="#SVGID_1_-5"
         style="overflow:visible"
         id="use2398" />
    </clipPath>
    <clipPath
       id="SVGID_4_-6">
      <use
         height="100%"
         width="100%"
         y="0"
         x="0"
         xlink:href="#SVGID_3_-3"
         style="overflow:visible"
         id="use2412" />
    </clipPath>
    <clipPath
       id="SVGID_6_-7">
      <use
         height="100%"
         width="100%"
         y="0"
         x="0"
         xlink:href="#SVGID_5_-5"
         style="overflow:visible"
         id="use2422" />
    </clipPath>
    <clipPath
       id="SVGID_8_">
      <use
         height="100%"
         width="100%"
         y="0"
         x="0"
         xlink:href="#SVGID_7_"
         style="overflow:visible"
         id="use2432" />
    </clipPath>
    <clipPath
       id="SVGID_10_">
      <use
         height="100%"
         width="100%"
         y="0"
         x="0"
         xlink:href="#SVGID_9_"
         style="overflow:visible"
         id="use2442" />
    </clipPath>
    <rect
       id="SVGID_1_-5"
       x="-8.6000004"
       y="-8.8999996"
       width="512.5"
       height="70.099998" />
    <rect
       id="SVGID_3_-3"
       x="-8.6000004"
       y="-8.8999996"
       width="512.5"
       height="70.099998" />
    <rect
       id="SVGID_5_-5"
       x="-8.6000004"
       y="-8.8999996"
       width="512.5"
       height="70.099998" />
    <rect
       id="SVGID_7_"
       x="-8.6000004"
       y="-8.8999996"
       width="512.5"
       height="70.099998" />
    <rect
       id="SVGID_9_"
       x="-8.6000004"
       y="-8.8999996"
       width="512.5"
       height="70.099998" />
  </defs>
  <text
     y="31.020256"
     x="436.53268"
     id="text4"
     style="font-size:26.91710091px;font-family:SourceSansPro-SemiBold;fill:#c8285e" />
  <path
     style="opacity:0.81999972;fill:#384256;fill-opacity:1;stroke:none;stroke-width:0.00412707"
     id="path1663"
     d="m 20.660044,38.977615 c -0.30954,0.78827 -0.66857,1.766391 -1.0359,2.80642 l -0.40443,1.147336 h -0.50346 c -0.95336,0 -2.4061,0.193979 -3.25215,0.437476 -0.28887,0.08251 -0.53239,0.144462 -0.54064,0.136174 -0.004,-0.0085 -0.14856,-0.210503 -0.31778,-0.449856 -0.57777,-0.825419 -2.35244,-3.260403 -2.37308,-3.260403 -0.0414,0 -0.747,0.280635 -0.90383,0.363146 -0.0908,0.04516 -0.30539,0.148553 -0.47461,0.231118 -0.16922,0.07842 -0.49523,0.251732 -0.72225,0.387958 -0.2269705,0.132083 -0.6107905,0.359056 -0.8543005,0.503518 -0.43333,0.255876 -1.03178,0.685085 -1.41146,1.011136 l -0.18984,0.16922 0.49523,1.068916 c 0.27649,0.590162 0.70574,1.514643 0.95749,2.055298 l 0.45809,0.982244 -0.31363,0.317774 c -0.80892,0.825413 -1.78703,2.108944 -2.11719,2.785783 -0.0661,0.132083 -0.13209,0.235262 -0.1527,0.235262 -0.0165,0 -0.60254,-0.09904 -1.30003,-0.222882 -1.35782,-0.239353 -3.19024,-0.532383 -3.20676,-0.511753 -0.0329,0.03294 -0.42509,1.023516 -0.57778,1.456869 -0.21045,0.602542 -0.55715,2.302908 -0.7016,3.466752 l -0.025,0.206358 2.09657,0.804778 2.09656,0.804788 0.008,0.39205 c 0.0165,0.705737 0.0949,1.572422 0.1816,2.018144 0.0452,0.239353 0.11141,0.581911 0.14446,0.75526 0.0329,0.177456 0.10733,0.478705 0.16093,0.672701 0.0578,0.193979 0.10318,0.37967 0.10318,0.412717 0,0.02869 -0.38381,0.330153 -0.8543,0.664444 -0.47461,0.334297 -1.29178,0.92447 -1.82005,1.312423 -0.85843,0.627306 -0.95749,0.713983 -0.93684,0.796521 0.0908,0.3632 0.89144,1.914971 1.42797,2.77341 0.30539,0.478705 0.92033,1.361941 1.08955,1.560038 l 0.12379,0.140317 0.72224,-0.334297 c 0.70986,-0.334296 3.03754,-1.399079 3.28517,-1.506386 l 0.12379,-0.05775 0.55715,0.515897 c 0.6974805,0.65207 1.0441505,0.91209 1.9892505,1.489879 0.56952,0.346676 0.75113,0.478758 0.74287,0.536511 -0.004,0.04144 -0.0908,0.586034 -0.19398,1.209238 -0.1816,1.097803 -0.4787,3.087066 -0.4787,3.19024 0,0.02869 0.0619,0.07428 0.13617,0.107323 0.9286,0.371435 1.75814,0.627306 2.95087,0.907962 0.79653,0.189836 1.95212,0.387959 1.99339,0.342532 0.0743,-0.08256 1.07717,-2.719753 1.46511,-3.834074 l 0.15684,-0.466379 h 0.6273 c 1.0813,0 1.84482,-0.107323 2.938496,-0.420952 0.503517,-0.140318 0.602547,-0.156841 0.647941,-0.111415 0.02869,0.03294 0.631435,0.874947 1.341305,1.873704 0.70986,0.998757 1.29591,1.82417 1.304156,1.828304 0.01222,0.01647 0.375579,-0.152697 1.489884,-0.701609 0.462235,-0.226973 1.00288,-0.536511 1.423843,-0.813034 0.598414,-0.396194 1.366075,-0.961613 1.572423,-1.15971 0.07428,-0.06604 0.0619,-0.10318 -0.334297,-0.994629 -0.226973,-0.507608 -0.656193,-1.444484 -0.949234,-2.080057 l -0.536511,-1.151459 0.482849,-0.519988 c 0.660321,-0.701604 1.258767,-1.518766 1.671474,-2.278149 0.103179,-0.198123 0.206358,-0.367291 0.222882,-0.375579 0.01647,-0.0085 0.392049,0.04516 0.833675,0.119703 2.307041,0.387958 3.644223,0.598419 3.689618,0.581911 0.0908,-0.03719 0.734624,-1.869576 0.91209,-2.587692 0.03294,-0.148553 0.08251,-0.309538 0.10318,-0.359056 0.03719,-0.08666 0.301249,-1.57655 0.346676,-1.96037 l 0.02497,-0.193979 -0.198123,-0.08666 c -0.255877,-0.115559 -1.980975,-0.767618 -3.153064,-1.196843 l -0.940978,-0.342532 v -0.643814 c 0,-0.738752 -0.04144,-1.159715 -0.16922,-1.848939 -0.07428,-0.408574 -0.276491,-1.295905 -0.350767,-1.547653 -0.01647,-0.04941 0.181599,-0.210503 0.77589,-0.635563 0.895578,-0.639685 2.868322,-2.108944 2.901348,-2.166723 0.02869,-0.04516 -0.251732,-0.705732 -0.590163,-1.378449 -0.478705,-0.961613 -1.097813,-1.931478 -1.749883,-2.752768 L 32.484011,45.205428 31.93512,45.44478 c -0.759383,0.334297 -1.980995,0.895583 -2.835306,1.308285 l -0.713989,0.346676 -0.553019,-0.524132 c -0.586034,-0.553019 -1.295905,-1.106059 -1.770519,-1.386705 -0.247641,-0.144461 -0.755255,-0.478758 -0.858439,-0.565398 -0.01647,-0.01647 0.04516,-0.507608 0.136173,-1.097797 0.462235,-2.946753 0.540634,-3.450255 0.528276,-3.462634 -0.0085,-0.0042 -0.301249,-0.119703 -0.652065,-0.255877 -0.742875,-0.28887 -1.646714,-0.590162 -1.778775,-0.590162 -0.04941,0 -0.19398,-0.03719 -0.321918,-0.07842 -0.330152,-0.115559 -2.014016,-0.453946 -2.253385,-0.458091 -0.066,0 -0.10732,0.06604 -0.20221,0.297159 z m -0.747,10.825357 c 1.13907,0.202214 2.327676,0.759388 3.186116,1.49814 1.015259,0.874937 1.898457,2.472123 2.137831,3.862951 0.0908,0.524132 0.08251,1.432105 -0.01647,2.014021 -0.181599,1.052413 -0.635562,2.166729 -1.176218,2.880712 -0.953362,1.267018 -2.604194,2.261647 -4.209639,2.538159 -0.47047,0.07842 -1.37845,0.07842 -1.8737,0 -0.94098,-0.152697 -2.00577,-0.536512 -2.6661,-0.961608 -1.46924,-0.949229 -2.55879,-2.579436 -2.89721,-4.341699 -0.099,-0.524132 -0.099,-1.477505 0,-2.042908 0.37143,-2.100688 1.35781,-3.557557 3.14071,-4.647108 0.47047,-0.288871 1.20923,-0.586035 1.77464,-0.72224 0.79654,-0.189835 1.8118,-0.218738 2.60008,-0.07842 z"
     inkscape:connector-curvature="0" />
  <path
     style="fill:#008669;fill-opacity:1;stroke:none;stroke-width:0.00412707"
     id="path1665"
     d="m 18.427284,50.636647 c -0.88732,0.103179 -1.39083,0.255876 -2.12545,0.635562 -1.44448,0.747009 -2.30705,1.832432 -2.74451,3.458506 -0.20636,0.759388 -0.23935,0.994628 -0.2435,1.613694 0,0.586034 0.066,1.040023 0.22698,1.531145 0.099,0.305394 0.44985,1.068916 0.49113,1.068916 0.0122,0 0.14032,0.173311 0.27649,0.37967 0.6108,0.920342 1.46512,1.605438 2.5134,2.014021 2.08831,0.817168 4.279795,0.387959 5.930633,-1.155582 0.742875,-0.693357 1.353689,-1.799416 1.560043,-2.814681 0.284779,-1.415592 0.04941,-2.740389 -0.713983,-4.019786 -0.821296,-1.382577 -1.89434,-2.162596 -3.541053,-2.57118 -0.55302,-0.136173 -1.20511,-0.193979 -1.6302,-0.140317 z m 1.42385,1.54353 c 1.287655,0.321917 2.195612,1.077177 2.810549,2.33181 0.280635,0.581912 0.342532,0.883199 0.342532,1.687976 0,0.821296 -0.0619,1.114321 -0.371435,1.749894 -0.226973,0.474614 -0.462235,0.808906 -0.804782,1.151454 -1.196864,1.176223 -2.587684,1.518766 -4.226144,1.040034 -1.06479,-0.309538 -1.90671,-1.044162 -2.45562,-2.141965 -0.52413,-1.04828 -0.57365,-2.364826 -0.13617,-3.367706 0.43333,-0.973998 1.19273,-1.749894 2.16672,-2.207995 0.89558,-0.420953 1.68385,-0.491138 2.67436,-0.243497 z"
     inkscape:connector-curvature="0" />
  <text
     y="7.8086205"
     x="303.25909"
     class="st1 st2 st3"
     id="text2407" />
  <g
     id="g3224"
     transform="matrix(0.41135218,0,0,0.41135218,59.530628,25.832851)">
    <g
       inkscape:export-ydpi="96"
       inkscape:export-xdpi="96"
       transform="matrix(1.716448,0,0,1.716448,-132.29925,-37.67761)"
       id="g2284">
      <g
         transform="matrix(0.62906369,0,0,0.62906369,2.0931595,-8.3181724)"
         id="g16"
         style="fill:#008669;fill-opacity:1">
        <g
           id="g14"
           style="fill:#008669;fill-opacity:1">
          <defs
             id="defs7">
            <rect
               height="44.799999"
               width="37.299999"
               y="1.4"
               x="1.9"
               id="rect1549" />
          </defs>
          <clipPath
             id="clipPath1484">
            <use
               height="100%"
               width="100%"
               y="0"
               x="0"
               id="use1482"
               style="overflow:visible"
               xlink:href="#SVGID_1_" />
          </clipPath>
          <path
             inkscape:connector-curvature="0"
             id="path12"
             clip-path="url(#SVGID_2_)"
             d="M 29.4,11 H 32 c 1.3,0 2.3,0.2 3,0.6 0.7,0.4 1,1.1 1,2 0,1 -0.3,1.7 -1,2.2 -0.7,0.5 -1.7,0.7 -3,0.7 h -2.6 z m 0,-7.2 h 2.3 c 1.2,0 2,0.2 2.6,0.5 0.6,0.4 0.9,1 0.9,1.8 0,0.8 -0.3,1.4 -0.8,1.8 C 33.8,8.3 33,8.6 31.7,8.6 H 29.5 C 29.4,8.7 29.4,3.8 29.4,3.8 Z m 3,15.2 c 1,0 1.9,-0.1 2.7,-0.3 0.8,-0.2 1.5,-0.5 2.1,-1 0.6,-0.5 1.1,-1 1.4,-1.6 0.3,-0.6 0.5,-1.4 0.5,-2.3 0,-1.2 -0.3,-2.1 -1,-2.8 -0.7,-0.7 -1.4,-1.1 -2.4,-1.4 v 0 C 36.5,9.3 37.1,8.8 37.5,8.1 37.9,7.4 38.2,6.6 38.2,5.8 38.2,5 38,4.3 37.7,3.7 37.4,3.1 36.9,2.7 36.4,2.4 35.9,2.1 35.2,1.8 34.4,1.7 33.7,1.5 32.8,1.4 31.9,1.4 H 26.3 V 19 Z M 21.3,1.4 H 18.2 V 19 h 3.1 z M 14.6,19 V 16.4 H 7.2 V 1.4 H 4.1 V 19 Z"
             class="st0"
             style="fill:#008669;fill-opacity:1" />
        </g>
      </g>
      <g
         transform="matrix(0.62906369,0,0,0.62906369,2.0931595,-8.3181724)"
         id="g28"
         style="fill:#008669;fill-opacity:1">
        <g
           id="g26"
           style="fill:#008669;fill-opacity:1">
          <defs
             id="defs19">
            <rect
               height="44.799999"
               width="37.299999"
               y="1.4"
               x="1.9"
               id="rect1557" />
          </defs>
          <clipPath
             id="clipPath1493">
            <use
               height="100%"
               width="100%"
               y="0"
               x="0"
               id="use1491"
               style="overflow:visible"
               xlink:href="#SVGID_3_" />
          </clipPath>
          <polygon
             id="polygon24"
             clip-path="url(#SVGID_4_)"
             points="39.2,26.6 39.2,23.8 3.3,29.5 3.3,32.3 "
             class="st1"
             style="fill:#008669;fill-opacity:1" />
        </g>
      </g>
      <g
         transform="matrix(0.62906369,0,0,0.62906369,2.0931595,-8.3181724)"
         id="g40"
         style="fill:#008669;fill-opacity:1">
        <g
           id="g38"
           style="fill:#008669;fill-opacity:1">
          <defs
             id="defs31">
            <rect
               height="44.799999"
               width="37.299999"
               y="1.4"
               x="1.9"
               id="rect1565" />
          </defs>
          <clipPath
             id="clipPath1502">
            <use
               height="100%"
               width="100%"
               y="0"
               x="0"
               id="use1500"
               style="overflow:visible"
               xlink:href="#SVGID_5_" />
          </clipPath>
          <polygon
             id="polygon36"
             clip-path="url(#SVGID_6_)"
             points="35.8,33.2 35.8,30.3 1.9,43.3 1.9,46.2 "
             class="st2"
             style="fill:#008669;fill-opacity:1" />
        </g>
      </g>
    </g>
    <g
       style="fill:#008669;fill-opacity:1"
       id="g2405"
       transform="translate(-135.91252,-52.653377)">
      <g
         style="fill:#008669;fill-opacity:1"
         id="g2403">
        <defs
           id="defs2396">
          <rect
             height="70.099998"
             width="512.5"
             y="-8.8999996"
             x="-8.6000004"
             id="rect3127" />
        </defs>
        <clipPath
           id="clipPath3026">
          <use
             id="use3024"
             style="overflow:visible"
             xlink:href="#SVGID_1_-5"
             x="0"
             y="0"
             width="100%"
             height="100%" />
        </clipPath>
        <path
           style="fill:#008669;fill-opacity:1"
           id="path2401"
           clip-path="url(#SVGID_2_-3)"
           d="m 436.2,19.5 c 0.6,-0.2 1.2,-0.5 1.6,-0.9 0.4,-0.4 0.8,-0.8 1,-1.3 0.2,-0.5 0.3,-1 0.3,-1.6 0,-0.6 -0.1,-1.1 -0.3,-1.6 -0.2,-0.4 -0.5,-0.8 -0.9,-1.1 -0.4,-0.3 -0.8,-0.6 -1.2,-0.8 -0.5,-0.2 -0.9,-0.4 -1.4,-0.6 -0.4,-0.1 -0.7,-0.2 -1,-0.4 -0.3,-0.1 -0.6,-0.3 -0.9,-0.4 -0.2,-0.1 -0.5,-0.3 -0.6,-0.5 -0.1,-0.2 -0.2,-0.4 -0.2,-0.7 0,-0.4 0.2,-0.8 0.5,-1 0.3,-0.2 0.8,-0.4 1.5,-0.4 0.5,0 1,0.1 1.5,0.3 0.5,0.2 1,0.5 1.4,0.8 l 1.4,-1.9 C 438.4,7 437.7,6.6 437,6.3 436.3,6 435.4,5.8 434.5,5.8 c -1.5,0 -2.7,0.4 -3.5,1.1 -0.9,0.7 -1.3,1.7 -1.3,2.8 0,0.6 0.1,1 0.3,1.4 0.2,0.4 0.5,0.8 0.9,1.1 0.4,0.3 0.8,0.6 1.2,0.8 0.5,0.2 0.9,0.4 1.3,0.6 0.3,0.1 0.7,0.3 1,0.4 0.3,0.1 0.6,0.3 0.9,0.4 0.3,0.2 0.5,0.4 0.6,0.6 0.2,0.2 0.2,0.4 0.2,0.7 0,0.5 -0.2,0.9 -0.5,1.1 -0.3,0.3 -0.9,0.4 -1.6,0.4 -0.7,0 -1.3,-0.1 -1.9,-0.4 -0.6,-0.3 -1.2,-0.6 -1.8,-1.1 l -1.5,2 c 0.6,0.5 1.4,1 2.3,1.3 0.9,0.4 1.8,0.5 2.7,0.5 1.1,0.3 1.8,0.2 2.4,0 M 426,3.4 c 0.4,-0.3 0.5,-0.7 0.5,-1.3 0,-0.6 -0.2,-1 -0.5,-1.3 -0.4,-0.3 -0.8,-0.5 -1.4,-0.5 -0.6,0 -1,0.2 -1.4,0.5 -0.4,0.3 -0.5,0.8 -0.5,1.3 0,0.5 0.2,0.9 0.5,1.3 0.3,0.4 0.8,0.5 1.4,0.5 0.6,0 1,-0.1 1.4,-0.5 m 0.1,2.8 H 423 v 13.2 h 3.1 z M 417,19.5 c 0.6,-0.2 1.2,-0.5 1.6,-0.9 0.4,-0.4 0.8,-0.8 1,-1.3 0.2,-0.5 0.3,-1 0.3,-1.6 0,-0.6 -0.1,-1.1 -0.3,-1.6 -0.2,-0.5 -0.5,-0.8 -0.9,-1.1 -0.4,-0.3 -0.8,-0.6 -1.2,-0.8 -0.5,-0.2 -0.9,-0.4 -1.4,-0.6 -0.4,-0.1 -0.7,-0.2 -1,-0.4 -0.3,-0.1 -0.6,-0.3 -0.9,-0.4 -0.2,-0.1 -0.5,-0.3 -0.6,-0.5 -0.1,-0.2 -0.2,-0.4 -0.2,-0.7 0,-0.4 0.2,-0.8 0.5,-1 0.3,-0.2 0.8,-0.4 1.5,-0.4 0.5,0 1,0.1 1.5,0.3 0.5,0.2 1,0.5 1.4,0.8 l 1.4,-1.9 C 419.2,7 418.5,6.6 417.8,6.3 417.1,6 416.2,5.8 415.3,5.8 c -1.5,0 -2.7,0.4 -3.5,1.1 -0.9,0.7 -1.3,1.7 -1.3,2.8 0,0.6 0.1,1 0.3,1.4 0.2,0.4 0.5,0.8 0.9,1.1 0.4,0.3 0.8,0.6 1.2,0.8 0.5,0.2 0.9,0.4 1.3,0.6 0.3,0.1 0.7,0.3 1,0.4 0.3,0.1 0.6,0.3 0.9,0.4 0.3,0.2 0.5,0.4 0.6,0.6 0.2,0.2 0.2,0.4 0.2,0.7 0,0.5 -0.2,0.9 -0.5,1.1 -0.3,0.3 -0.9,0.4 -1.6,0.4 -0.7,0 -1.3,-0.1 -1.9,-0.4 -0.6,-0.3 -1.2,-0.6 -1.8,-1.1 l -1.5,2 c 0.6,0.5 1.4,1 2.3,1.3 0.9,0.4 1.8,0.5 2.7,0.5 1,0.3 1.7,0.2 2.4,0 m -16.7,5.1 c 0.5,-0.2 1,-0.5 1.5,-1 0.5,-0.5 0.8,-0.9 1.1,-1.5 0.3,-0.6 0.6,-1.3 0.9,-2 l 4.8,-13.8 h -3 l -2,6.5 c -0.2,0.6 -0.3,1.2 -0.5,1.8 -0.2,0.6 -0.3,1.3 -0.5,1.9 h -0.1 c -0.2,-0.6 -0.4,-1.3 -0.6,-1.9 -0.2,-0.6 -0.4,-1.2 -0.6,-1.8 L 399,6.2 h -3.1 l 5.2,13.1 -0.2,0.8 c -0.2,0.7 -0.5,1.2 -1,1.6 -0.4,0.4 -1,0.6 -1.7,0.6 -0.2,0 -0.3,0 -0.5,-0.1 -0.2,0 -0.3,-0.1 -0.4,-0.1 l -0.6,2.4 c 0.2,0.1 0.5,0.2 0.8,0.2 0.3,0 0.6,0.1 0.9,0.1 0.7,0.1 1.3,0 1.9,-0.2 m -5.7,-5.1 -0.4,-2.3 c -0.1,0 -0.2,0 -0.3,0 h -0.2 c -0.2,0 -0.3,-0.1 -0.5,-0.2 -0.1,-0.1 -0.2,-0.4 -0.2,-0.8 V 0.5 h -3.1 v 15.6 c 0,1.1 0.2,2.1 0.7,2.7 0.5,0.6 1.2,1 2.3,1 0.7,0 1.3,-0.1 1.7,-0.3 m -16,-2.5 c -0.4,-0.3 -0.5,-0.7 -0.5,-1.3 0,-0.3 0.1,-0.6 0.2,-0.9 0.1,-0.3 0.4,-0.5 0.8,-0.8 0.4,-0.2 0.9,-0.4 1.5,-0.6 0.6,-0.2 1.4,-0.3 2.3,-0.4 v 3 c -0.5,0.5 -1,0.8 -1.4,1.1 -0.4,0.3 -0.9,0.4 -1.5,0.4 -0.5,-0.1 -1,-0.3 -1.4,-0.5 m 2.6,2.3 c 0.7,-0.3 1.3,-0.8 1.9,-1.3 h 0.1 l 0.2,1.5 H 386 V 11.7 C 386,9.8 385.6,8.4 384.8,7.5 384,6.6 382.8,6 381.1,6 c -1.1,0 -2,0.2 -3,0.5 -1,0.3 -1.7,0.8 -2.5,1.2 l 1.1,2.1 c 0.6,-0.4 1.2,-0.7 1.8,-0.9 0.6,-0.2 1.2,-0.4 1.9,-0.4 0.5,0 0.8,0.1 1.1,0.2 0.3,0.1 0.5,0.3 0.7,0.6 0.2,0.2 0.3,0.5 0.4,0.8 0.1,0.3 0.1,0.6 0.1,1 -1.4,0.1 -2.5,0.4 -3.5,0.6 -1,0.3 -1.8,0.6 -2.4,1 -0.6,0.4 -1.1,0.9 -1.4,1.4 -0.3,0.6 -0.4,1.2 -0.4,1.9 0,1.2 0.4,2.1 1.1,2.8 0.7,0.7 1.7,1.1 2.8,1.1 0.9,-0.1 1.6,-0.3 2.3,-0.6 m -17.5,0.2 v -9.2 c 0.6,-0.5 1,-0.9 1.5,-1.2 0.4,-0.3 1,-0.4 1.5,-0.4 0.7,0 1.3,0.2 1.6,0.7 0.3,0.4 0.5,1.2 0.5,2.3 v 7.9 h 3.1 v -8.3 c 0,-1.7 -0.3,-3 -1,-3.9 -0.7,-0.9 -1.7,-1.4 -3.1,-1.4 -0.9,0 -1.7,0.2 -2.4,0.6 -0.7,0.4 -1.4,0.9 -2,1.4 h -0.1 l -0.2,-1.8 h -2.6 v 13.2 z m -17.6,0 1.4,-4.8 h 5.9 l 1.4,4.8 h 3.3 L 352.4,1.9 h -3.7 L 343,19.5 Z m 3.5,-12.3 c 0.2,-1 0.5,-2 0.8,-2.9 h 0.1 c 0.2,1 0.5,1.9 0.8,2.9 0.3,1 0.5,1.9 0.8,2.9 l 0.6,2.2 h -4.5 l 0.6,-2.1 c 0.3,-1 0.5,-2 0.8,-3 m -21.6,2 c 0.6,-0.6 1.3,-0.8 2.1,-0.8 0.9,0 1.6,0.3 2,0.9 0.4,0.6 0.7,1.4 0.7,2.4 h -5.9 c 0.2,-1.2 0.5,-2 1.1,-2.5 m 4.9,10.2 c 0.8,-0.3 1.5,-0.6 2.1,-1 l -1,-1.9 c -0.5,0.3 -1,0.5 -1.5,0.7 -0.5,0.2 -1,0.3 -1.6,0.3 -1.1,0 -2,-0.3 -2.6,-1 -0.6,-0.7 -1.1,-1.6 -1.2,-2.7 h 8.4 c 0,-0.2 0.1,-0.4 0.1,-0.6 0,-0.3 0,-0.6 0,-0.9 0,-0.9 -0.1,-1.8 -0.4,-2.5 -0.2,-0.8 -0.6,-1.4 -1,-2 -0.5,-0.6 -1,-1 -1.7,-1.3 C 331.8,6.2 331,6 330.1,6 c -0.8,0 -1.5,0.2 -2.3,0.5 -0.7,0.3 -1.4,0.8 -2,1.4 -0.6,0.6 -1,1.3 -1.4,2.2 -0.3,0.9 -0.5,1.8 -0.5,2.9 0,1.1 0.2,2.1 0.5,2.9 0.3,0.8 0.8,1.6 1.4,2.2 0.6,0.6 1.3,1 2.1,1.4 0.8,0.4 1.6,0.5 2.6,0.5 0.8,-0.2 1.6,-0.3 2.4,-0.6 m -20.4,0.1 v -9.2 c 0.6,-0.5 1,-0.9 1.5,-1.2 0.4,-0.3 1,-0.4 1.5,-0.4 0.7,0 1.3,0.2 1.6,0.7 0.3,0.4 0.5,1.2 0.5,2.3 v 7.9 h 3.1 v -8.3 c 0,-1.7 -0.3,-3 -1,-3.9 C 319,6.5 318,6 316.6,6 c -0.9,0 -1.7,0.2 -2.4,0.6 -0.7,0.4 -1.3,0.9 -1.8,1.4 l 0.1,-2.6 V 0.5 h -3.1 v 19 z m -7,0.1 c 0.5,-0.1 0.9,-0.2 1.2,-0.3 L 306.2,17 c -0.2,0.1 -0.4,0.2 -0.7,0.2 -0.2,0 -0.5,0.1 -0.7,0.1 -1.2,0 -1.9,-0.8 -1.9,-2.3 V 8.7 h 3.4 V 6.2 h -3.4 V 2.6 h -2.6 l -0.3,3.7 -2,0.1 v 2.3 h 1.9 V 15 c 0,0.7 0.1,1.4 0.2,1.9 0.1,0.6 0.4,1.1 0.7,1.5 0.3,0.4 0.8,0.8 1.3,1 0.5,0.2 1.2,0.4 2,0.4 0.4,0 0.9,-0.1 1.4,-0.2 M 286,19.5 v -8.1 c 0.4,-1 0.9,-1.7 1.5,-2.1 0.6,-0.4 1.1,-0.6 1.6,-0.6 0.3,0 0.5,0 0.7,0.1 0.2,0 0.4,0.1 0.6,0.2 l 0.5,-2.7 C 290.5,6.1 290,6 289.4,6 c -0.7,0 -1.4,0.2 -2,0.7 -0.7,0.5 -1.2,1.1 -1.7,2 h -0.1 l -0.2,-2.3 h -2.6 v 13.2 z m -15.1,-3.4 c -0.5,-0.8 -0.8,-1.9 -0.8,-3.2 0,-1.4 0.3,-2.4 0.8,-3.2 0.5,-0.8 1.3,-1.2 2.3,-1.2 1,0 1.7,0.4 2.3,1.2 0.6,0.8 0.8,1.9 0.8,3.2 0,1.3 -0.3,2.4 -0.8,3.2 -0.6,0.8 -1.3,1.2 -2.3,1.2 -1,0 -1.7,-0.4 -2.3,-1.2 m 4.7,3.2 c 0.8,-0.3 1.4,-0.8 2,-1.4 0.6,-0.6 1,-1.3 1.4,-2.2 0.4,-0.9 0.5,-1.8 0.5,-2.9 0,-1.1 -0.2,-2.1 -0.5,-2.9 -0.4,-0.9 -0.8,-1.6 -1.4,-2.2 -0.6,-0.6 -1.2,-1 -2,-1.4 -0.8,-0.3 -1.6,-0.5 -2.4,-0.5 -0.8,0 -1.6,0.2 -2.4,0.5 -0.8,0.3 -1.4,0.8 -2,1.4 -0.6,0.6 -1,1.3 -1.4,2.2 -0.3,0.9 -0.5,1.8 -0.5,2.9 0,1.1 0.2,2.1 0.5,2.9 0.3,0.8 0.8,1.6 1.4,2.2 0.6,0.6 1.2,1 2,1.4 0.8,0.3 1.5,0.5 2.4,0.5 0.8,0 1.6,-0.2 2.4,-0.5 m -13,0.2 V 8.7 h 2.6 V 6.2 h -2.6 V 4.8 c 0,-1.5 0.6,-2.2 1.7,-2.2 0.5,0 1,0.1 1.5,0.3 l 0.6,-2.3 c -0.3,-0.1 -0.7,-0.2 -1.1,-0.3 -0.4,-0.1 -0.9,-0.1 -1.3,-0.1 -0.8,0 -1.5,0.1 -2,0.4 -0.5,0.2 -1,0.6 -1.4,1 -0.4,0.4 -0.6,0.9 -0.8,1.5 -0.2,0.6 -0.2,1.2 -0.2,1.9 v 1.4 l -1.8,0.1 v 2.3 h 1.8 v 10.8 h 3 z M 242.1,9.2 c 0.6,-0.6 1.3,-0.8 2.1,-0.8 0.9,0 1.6,0.3 2,0.9 0.4,0.6 0.7,1.4 0.7,2.4 H 241 c 0.1,-1.2 0.5,-2 1.1,-2.5 m 4.8,10.2 c 0.8,-0.3 1.5,-0.6 2.1,-1 l -1.1,-1.9 c -0.5,0.3 -1,0.5 -1.5,0.7 -0.5,0.2 -1,0.3 -1.6,0.3 -1.1,0 -2,-0.3 -2.6,-1 -0.7,-0.6 -1.1,-1.6 -1.2,-2.7 h 8.4 c 0,-0.2 0.1,-0.4 0.1,-0.6 0,-0.3 0,-0.6 0,-0.9 0,-0.9 -0.1,-1.8 -0.4,-2.5 -0.2,-0.8 -0.6,-1.4 -1,-2 -0.5,-0.6 -1,-1 -1.7,-1.3 C 245.7,6.2 244.9,6 244,6 c -0.8,0 -1.5,0.2 -2.3,0.5 -0.7,0.3 -1.4,0.8 -1.9,1.4 -0.6,0.6 -1,1.3 -1.4,2.2 -0.3,0.9 -0.5,1.8 -0.5,2.9 0,1.1 0.2,2.1 0.5,2.9 0.3,0.8 0.8,1.6 1.4,2.2 0.6,0.6 1.3,1 2.1,1.4 0.8,0.3 1.6,0.5 2.6,0.5 0.8,-0.2 1.6,-0.3 2.4,-0.6 m -11.7,0.2 c 0.5,-0.1 0.9,-0.2 1.2,-0.3 L 235.9,17 c -0.2,0.1 -0.4,0.2 -0.7,0.2 -0.2,0 -0.5,0.1 -0.7,0.1 -1.2,0 -1.9,-0.8 -1.9,-2.3 V 8.7 H 236 V 6.2 h -3.4 V 2.6 H 230 l -0.4,3.6 -2.1,0.1 v 2.3 h 1.9 V 15 c 0,0.7 0.1,1.4 0.2,1.9 0.1,0.5 0.4,1.1 0.7,1.5 0.3,0.4 0.8,0.8 1.3,1 0.5,0.2 1.2,0.4 1.9,0.4 0.7,0 1.2,-0.1 1.7,-0.2 m -15.1,-0.4 c 0.7,-0.4 1.3,-1 1.9,-1.6 h 0.1 l 0.2,1.9 h 2.5 V 6.2 h -3.1 v 9 c -0.5,0.6 -1,1.1 -1.4,1.4 -0.4,0.3 -0.9,0.4 -1.5,0.4 -0.7,0 -1.2,-0.2 -1.6,-0.7 -0.3,-0.5 -0.5,-1.2 -0.5,-2.3 V 6.2 h -3.1 v 8.3 c 0,1.7 0.3,3 1,3.9 0.7,0.9 1.7,1.4 3.1,1.4 1,0 1.8,-0.2 2.4,-0.6 M 210,19.6 c 0.5,-0.1 0.9,-0.2 1.2,-0.3 L 210.7,17 c -0.2,0.1 -0.4,0.2 -0.7,0.2 -0.2,0 -0.5,0.1 -0.7,0.1 -1.2,0 -1.9,-0.8 -1.9,-2.3 V 8.7 h 3.4 V 6.2 h -3.4 V 2.6 h -2.6 l -0.4,3.6 -2.1,0.1 v 2.3 h 1.9 V 15 c 0,0.7 0.1,1.4 0.2,1.9 0.1,0.5 0.4,1.1 0.7,1.5 0.3,0.4 0.8,0.8 1.3,1 0.5,0.2 1.2,0.4 1.9,0.4 0.8,0 1.3,-0.1 1.7,-0.2 M 199.5,3.4 c 0.4,-0.3 0.5,-0.7 0.5,-1.3 0,-0.6 -0.2,-1 -0.5,-1.3 -0.3,-0.3 -0.8,-0.5 -1.4,-0.5 -0.6,0 -1,0.2 -1.4,0.5 -0.4,0.3 -0.5,0.8 -0.5,1.3 0,0.5 0.2,0.9 0.5,1.3 0.3,0.4 0.8,0.5 1.4,0.5 0.6,0 1.1,-0.1 1.4,-0.5 m 0.2,2.8 h -3.1 v 13.2 h 3.1 z m -7,13.4 c 0.5,-0.1 0.9,-0.2 1.2,-0.3 L 193.4,17 c -0.2,0.1 -0.4,0.2 -0.7,0.2 -0.2,0 -0.5,0.1 -0.7,0.1 -1.2,0 -1.9,-0.8 -1.9,-2.3 V 8.7 h 3.4 V 6.2 h -3.4 V 2.6 h -2.6 l -0.4,3.6 -2.1,0.1 v 2.3 h 1.9 V 15 c 0,0.7 0.1,1.4 0.2,1.9 0.1,0.5 0.4,1.1 0.7,1.5 0.3,0.4 0.8,0.8 1.3,1 0.5,0.2 1.2,0.4 1.9,0.4 0.7,0 1.2,-0.1 1.7,-0.2 m -12.6,-0.1 c 0.6,-0.2 1.2,-0.5 1.6,-0.9 0.4,-0.4 0.8,-0.8 1,-1.3 0.2,-0.5 0.3,-1 0.3,-1.6 0,-0.6 -0.1,-1.1 -0.3,-1.6 -0.2,-0.4 -0.5,-0.8 -0.9,-1.1 -0.4,-0.3 -0.8,-0.6 -1.2,-0.8 -0.4,-0.2 -0.9,-0.4 -1.4,-0.6 -0.4,-0.1 -0.7,-0.2 -1,-0.4 -0.3,-0.1 -0.6,-0.3 -0.9,-0.4 -0.2,-0.1 -0.4,-0.3 -0.6,-0.5 -0.1,-0.2 -0.2,-0.4 -0.2,-0.7 0,-0.4 0.2,-0.8 0.5,-1 0.3,-0.2 0.8,-0.4 1.5,-0.4 0.5,0 1,0.1 1.5,0.3 0.5,0.2 0.9,0.5 1.4,0.8 l 1.4,-1.9 C 182.3,7 181.6,6.6 180.9,6.3 180.2,6 179.3,5.8 178.4,5.8 c -1.5,0 -2.7,0.4 -3.5,1.1 -0.9,0.7 -1.3,1.7 -1.3,2.8 0,0.6 0.1,1 0.3,1.4 0.2,0.4 0.5,0.8 0.9,1.1 0.4,0.3 0.8,0.6 1.2,0.8 0.4,0.2 0.9,0.4 1.3,0.6 0.3,0.1 0.7,0.3 1,0.4 0.3,0.1 0.6,0.3 0.9,0.4 0.3,0.1 0.5,0.4 0.6,0.6 0.2,0.2 0.2,0.4 0.2,0.7 0,0.5 -0.2,0.9 -0.5,1.1 -0.3,0.3 -0.9,0.4 -1.6,0.4 -0.7,0 -1.3,-0.1 -1.9,-0.4 -0.6,-0.3 -1.2,-0.6 -1.8,-1.1 l -1.4,2 c 0.6,0.5 1.4,1 2.3,1.3 0.9,0.3 1.8,0.5 2.7,0.5 1,0.3 1.7,0.2 2.3,0 m -18.2,0 v -9.2 c 0.6,-0.5 1.1,-0.9 1.5,-1.2 0.4,-0.3 0.9,-0.4 1.5,-0.4 0.7,0 1.3,0.2 1.6,0.7 0.3,0.4 0.5,1.2 0.5,2.3 v 7.9 h 3.1 v -8.3 c 0,-1.7 -0.3,-3 -1,-3.9 C 168.4,6.5 167.4,6 166,6 c -0.9,0 -1.7,0.2 -2.4,0.6 -0.7,0.4 -1.3,0.9 -1.9,1.5 h -0.1 l -0.2,-1.8 h -2.6 V 19.5 Z M 154.4,1.9 h -3.1 v 17.6 h 3.1 z M 141.9,19.5 V 17 h -6.4 l 6.2,-9.1 V 6.2 h -9.4 v 2.4 h 5.5 l -6.2,9.1 v 1.7 h 10.3 z M 128.5,3.4 c 0.4,-0.3 0.5,-0.7 0.5,-1.3 0,-0.6 -0.2,-1 -0.5,-1.3 -0.3,-0.3 -0.8,-0.5 -1.4,-0.5 -0.6,0 -1,0.2 -1.4,0.5 -0.4,0.3 -0.5,0.8 -0.5,1.3 0,0.5 0.2,0.9 0.5,1.3 0.3,0.4 0.8,0.5 1.4,0.5 0.6,0 1,-0.1 1.4,-0.5 m 0.1,2.8 h -3.1 v 13.2 h 3.1 z m -15.2,13.3 v -9.2 c 0.6,-0.5 1.1,-0.9 1.5,-1.2 0.4,-0.3 0.9,-0.4 1.5,-0.4 0.7,0 1.3,0.2 1.6,0.7 0.3,0.4 0.5,1.2 0.5,2.3 v 7.9 h 3.1 v -8.3 c 0,-1.7 -0.3,-3 -1,-3.9 -0.7,-0.9 -1.7,-1.4 -3.1,-1.4 -0.9,0 -1.7,0.2 -2.4,0.6 -0.7,0.4 -1.3,0.9 -1.9,1.5 H 113 l -0.2,-1.8 h -2.6 V 19.5 Z M 99.2,17 C 98.7,16.8 98.3,16.5 97.8,16.1 V 10 c 1,-1 2,-1.5 2.9,-1.5 1,0 1.7,0.4 2.2,1.1 0.4,0.7 0.7,1.8 0.7,3.1 0,1.5 -0.3,2.6 -0.9,3.4 -0.6,0.8 -1.3,1.1 -2.2,1.1 -0.4,0 -0.8,-0.1 -1.3,-0.2 m 4.1,2.3 c 0.7,-0.3 1.3,-0.8 1.8,-1.4 0.5,-0.6 0.9,-1.4 1.2,-2.2 0.3,-0.9 0.5,-1.9 0.5,-3 0,-1 -0.1,-1.9 -0.3,-2.8 -0.2,-0.8 -0.6,-1.5 -1,-2.1 -0.4,-0.6 -1,-1 -1.6,-1.3 C 103.2,6.2 102.5,6 101.7,6 101,6 100.4,6.2 99.7,6.5 99,6.8 98.4,7.2 97.9,7.7 L 98,5.5 v -5 h -3.1 v 19 h 2.4 l 0.3,-1.4 h 0.1 c 0.6,0.6 1.1,1 1.8,1.3 0.6,0.3 1.2,0.4 1.8,0.4 0.6,0 1.3,-0.2 2,-0.5 M 90.4,3.4 C 90.8,3.1 91,2.7 91,2.2 91,1.7 90.8,1.2 90.5,0.9 90.2,0.6 89.7,0.4 89.1,0.4 c -0.6,0 -1,0.2 -1.4,0.5 -0.4,0.3 -0.5,0.8 -0.5,1.3 0,0.5 0.2,0.9 0.5,1.3 0.3,0.4 0.8,0.5 1.4,0.5 0.5,-0.1 1,-0.2 1.3,-0.6 m 0.2,2.8 h -3.1 v 13.2 h 3.1 z m -13.8,3 c 0.6,-0.6 1.3,-0.8 2.1,-0.8 0.9,0 1.6,0.3 2,0.9 0.4,0.6 0.7,1.4 0.7,2.4 h -5.9 c 0.1,-1.2 0.5,-2 1.1,-2.5 m 4.8,10.2 c 0.8,-0.3 1.5,-0.6 2.1,-1 l -1.1,-1.9 c -0.5,0.3 -1,0.5 -1.5,0.7 -0.5,0.2 -1,0.3 -1.6,0.3 -1.1,0 -2,-0.3 -2.7,-1 -0.7,-0.7 -1.1,-1.6 -1.2,-2.7 H 84 c 0,-0.2 0.1,-0.4 0.1,-0.6 0,-0.2 0,-0.6 0,-0.9 C 84.1,11.4 84,10.5 83.8,9.8 83.6,9 83.2,8.4 82.8,7.8 82.3,7.2 81.8,6.8 81.1,6.5 80.4,6.2 79.6,6 78.7,6 77.9,6 77.2,6.2 76.4,6.5 75.7,6.8 75,7.3 74.5,7.9 c -0.6,0.6 -1,1.3 -1.4,2.2 -0.3,0.9 -0.5,1.8 -0.5,2.9 0,1.1 0.2,2.1 0.5,2.9 0.3,0.8 0.8,1.6 1.4,2.2 0.6,0.6 1.3,1 2.1,1.4 0.8,0.3 1.6,0.5 2.6,0.5 0.8,-0.2 1.6,-0.3 2.4,-0.6 m -11.1,0.1 v -2.6 h -7.3 v -15 h -3.1 v 17.6 z"
           class="st0"
           inkscape:connector-curvature="0" />
      </g>
    </g>
    <g
       style="fill:#008669;fill-opacity:1"
       transform="translate(-135.91252,-52.653377)"
       id="g2417">
      <defs
         id="defs2410">
        <rect
           id="rect3136"
           x="-8.6000004"
           y="-8.8999996"
           width="512.5"
           height="70.099998" />
      </defs>
      <clipPath
         id="clipPath3036">
        <use
           height="100%"
           width="100%"
           y="0"
           x="0"
           xlink:href="#SVGID_3_-3"
           style="overflow:visible"
           id="use3034" />
      </clipPath>
      <path
         style="fill:#008669;fill-opacity:1"
         inkscape:connector-curvature="0"
         class="st4"
         d="m 318.1,36.1 c 0.6,-0.6 1.3,-0.8 2.1,-0.8 0.9,0 1.6,0.3 2,0.9 0.4,0.6 0.7,1.4 0.7,2.4 H 317 c 0.2,-1.2 0.5,-2 1.1,-2.5 m 4.9,10.2 c 0.8,-0.3 1.5,-0.6 2.1,-1 l -1,-1.9 c -0.5,0.3 -1,0.5 -1.5,0.7 -0.5,0.2 -1,0.3 -1.6,0.3 -1.1,0 -2,-0.3 -2.6,-1 -0.6,-0.7 -1.1,-1.5 -1.2,-2.7 h 8.4 c 0,-0.2 0.1,-0.4 0.1,-0.7 0,-0.3 0,-0.6 0,-0.9 0,-0.9 -0.1,-1.8 -0.4,-2.5 -0.3,-0.7 -0.6,-1.4 -1,-2 -0.5,-0.6 -1,-1 -1.7,-1.3 -0.7,-0.3 -1.5,-0.5 -2.4,-0.5 -0.8,0 -1.5,0.2 -2.3,0.5 -0.7,0.3 -1.4,0.8 -2,1.4 -0.6,0.6 -1,1.3 -1.4,2.2 -0.4,0.9 -0.5,1.8 -0.5,2.9 0,1.1 0.2,2.1 0.5,2.9 0.3,0.8 0.8,1.6 1.4,2.2 0.6,0.6 1.3,1 2.1,1.4 0.8,0.4 1.6,0.5 2.6,0.5 0.8,-0.1 1.6,-0.2 2.4,-0.5 m -19.7,3.4 c -0.6,-0.3 -0.9,-0.8 -0.9,-1.4 0,-0.7 0.3,-1.2 1,-1.8 0.5,0.1 1.1,0.2 1.8,0.2 h 1.8 c 0.8,0 1.3,0.1 1.7,0.3 0.4,0.2 0.6,0.5 0.6,1 0,0.6 -0.3,1.1 -1,1.5 -0.7,0.4 -1.5,0.6 -2.6,0.6 -0.9,0.1 -1.8,-0.1 -2.4,-0.4 m 0.5,-10.1 c -0.5,-0.5 -0.7,-1.1 -0.7,-2 0,-0.8 0.2,-1.5 0.7,-1.9 0.5,-0.5 1,-0.7 1.6,-0.7 0.6,0 1.2,0.2 1.6,0.7 0.4,0.5 0.7,1.1 0.7,1.9 0,0.9 -0.2,1.5 -0.7,2 -0.5,0.5 -1,0.7 -1.6,0.7 -0.6,-0.1 -1.1,-0.3 -1.6,-0.7 m 4.4,12.3 c 0.9,-0.2 1.6,-0.6 2.2,-1 0.6,-0.4 1.1,-0.9 1.4,-1.5 0.3,-0.6 0.5,-1.2 0.5,-1.8 0,-1.2 -0.4,-2 -1.2,-2.5 -0.8,-0.5 -2,-0.8 -3.6,-0.8 h -2.3 c -0.8,0 -1.4,-0.1 -1.7,-0.3 -0.3,-0.2 -0.5,-0.5 -0.5,-0.9 0,-0.3 0.1,-0.5 0.2,-0.7 0.1,-0.2 0.3,-0.4 0.5,-0.5 0.3,0.1 0.6,0.2 0.9,0.3 0.3,0 0.6,0.1 0.9,0.1 0.7,0 1.4,-0.1 2,-0.3 0.6,-0.2 1.1,-0.5 1.6,-0.9 0.5,-0.4 0.8,-0.8 1.1,-1.4 0.3,-0.6 0.4,-1.2 0.4,-1.9 0,-0.5 -0.1,-0.9 -0.2,-1.3 -0.1,-0.4 -0.3,-0.7 -0.5,-1 h 2.4 v -2.3 h -4.7 C 307.3,33.1 307,33 306.7,33 c -0.3,-0.1 -0.7,-0.1 -1,-0.1 -0.7,0 -1.4,0.1 -2,0.3 -0.6,0.2 -1.2,0.5 -1.7,0.9 -0.5,0.4 -0.9,0.9 -1.1,1.5 -0.3,0.6 -0.4,1.3 -0.4,2 0,0.8 0.2,1.5 0.5,2.1 0.4,0.6 0.8,1.1 1.2,1.4 v 0.1 c -0.4,0.3 -0.7,0.6 -1,1 -0.3,0.4 -0.4,0.9 -0.4,1.4 0,0.5 0.1,1 0.3,1.3 0.2,0.4 0.5,0.7 0.9,0.9 v 0.1 c -0.6,0.4 -1.1,0.8 -1.4,1.3 -0.3,0.5 -0.5,1 -0.5,1.5 0,0.6 0.1,1.1 0.4,1.5 0.3,0.4 0.7,0.8 1.1,1.1 0.4,0.3 1.1,0.5 1.7,0.7 0.7,0.1 1.4,0.2 2.2,0.2 0.9,0 1.9,-0.1 2.7,-0.3 m -19.6,-5.5 v -9.2 c 0.6,-0.5 1,-1 1.5,-1.2 0.4,-0.3 1,-0.4 1.5,-0.4 0.7,0 1.3,0.2 1.6,0.7 0.3,0.5 0.5,1.2 0.5,2.3 v 7.9 h 3.1 v -8.3 c 0,-1.7 -0.3,-3 -1,-3.9 -0.7,-0.9 -1.7,-1.4 -3.1,-1.4 -0.9,0 -1.7,0.2 -2.4,0.6 -0.7,0.4 -1.3,0.9 -1.9,1.5 h -0.1 l -0.2,-1.8 h -2.6 v 13.2 c 0,0 3.1,0 3.1,0 z m -14.5,-2.5 c -0.4,-0.3 -0.5,-0.7 -0.5,-1.3 0,-0.3 0.1,-0.6 0.2,-0.9 0.2,-0.3 0.4,-0.5 0.8,-0.8 0.4,-0.2 0.9,-0.4 1.5,-0.6 0.6,-0.2 1.4,-0.3 2.3,-0.4 v 3 c -0.5,0.5 -1,0.8 -1.4,1.1 -0.4,0.3 -0.9,0.4 -1.5,0.4 -0.5,-0.1 -1,-0.3 -1.4,-0.5 m 2.6,2.3 c 0.7,-0.3 1.3,-0.8 1.9,-1.3 h 0.1 l 0.2,1.5 h 2.6 v -7.8 c 0,-1.8 -0.4,-3.3 -1.2,-4.2 -0.8,-1 -2,-1.5 -3.7,-1.5 -1.1,0 -2,0.2 -3,0.5 -1,0.3 -1.7,0.7 -2.5,1.2 l 1.1,2.1 c 0.6,-0.4 1.2,-0.7 1.8,-0.9 0.6,-0.2 1.2,-0.4 1.9,-0.4 0.5,0 0.8,0.1 1.1,0.2 0.3,0.1 0.5,0.3 0.7,0.6 0.2,0.2 0.3,0.5 0.4,0.8 0.1,0.3 0.1,0.6 0.1,1 -1.4,0.1 -2.5,0.3 -3.5,0.6 -1,0.3 -1.8,0.6 -2.4,1 -0.6,0.4 -1.1,0.9 -1.4,1.4 -0.3,0.5 -0.4,1.2 -0.4,1.9 0,1.2 0.4,2.1 1.1,2.8 0.7,0.7 1.7,1.1 2.8,1.1 0.9,-0.1 1.6,-0.3 2.3,-0.6 m -17.5,0.2 v -9.2 c 0.6,-0.5 1,-1 1.5,-1.2 0.4,-0.3 1,-0.4 1.5,-0.4 0.7,0 1.3,0.2 1.6,0.7 0.3,0.5 0.5,1.2 0.5,2.3 v 7.9 h 3.1 v -8.3 c 0,-1.7 -0.3,-3 -1,-3.9 -0.7,-0.9 -1.7,-1.4 -3.1,-1.4 -0.9,0 -1.7,0.2 -2.4,0.6 -0.7,0.4 -1.3,0.9 -1.8,1.4 l 0.1,-2.6 v -4.9 h -3.1 v 19 c 0,0 3.1,0 3.1,0 z M 250.7,46 c 0.9,-0.4 1.7,-1.1 2.5,-1.9 l -1.7,-2 c -0.5,0.5 -1.1,1 -1.7,1.3 -0.6,0.3 -1.3,0.5 -2.1,0.5 -1.5,0 -2.7,-0.6 -3.5,-1.7 -0.8,-1.1 -1.3,-2.7 -1.3,-4.7 0,-1 0.1,-1.9 0.4,-2.7 0.3,-0.8 0.6,-1.5 1,-2 0.4,-0.5 1,-1 1.6,-1.3 0.6,-0.3 1.3,-0.5 2,-0.5 0.7,0 1.3,0.1 1.8,0.4 0.5,0.3 1,0.7 1.5,1.1 l 1.7,-2 c -0.6,-0.6 -1.3,-1.1 -2.1,-1.6 -0.9,-0.5 -1.9,-0.7 -3,-0.7 -1.1,0 -2.2,0.2 -3.1,0.6 -1,0.4 -1.8,1 -2.6,1.8 -0.8,0.8 -1.3,1.8 -1.7,2.9 -0.4,1.1 -0.6,2.4 -0.6,3.9 0,1.5 0.2,2.7 0.6,3.9 0.4,1.1 1,2.1 1.7,2.8 0.7,0.7 1.6,1.3 2.5,1.8 0.9,0.5 2,0.6 3.1,0.6 1.1,0.2 2.1,0 3,-0.5 m -27.4,5.5 c 0.6,-0.2 1,-0.5 1.4,-1 0.4,-0.4 0.8,-0.9 1.1,-1.5 0.3,-0.6 0.6,-1.3 0.9,-2 l 4.8,-13.8 h -3 l -2,6.5 c -0.2,0.6 -0.3,1.2 -0.5,1.8 -0.2,0.6 -0.3,1.3 -0.5,1.9 h -0.1 c -0.2,-0.6 -0.4,-1.3 -0.6,-1.9 -0.2,-0.6 -0.4,-1.2 -0.6,-1.8 l -2.3,-6.5 h -3.1 l 5.2,13.1 -0.2,0.8 c -0.2,0.7 -0.5,1.2 -1,1.6 -0.4,0.4 -1,0.6 -1.7,0.6 -0.2,0 -0.3,0 -0.5,-0.1 -0.2,0 -0.3,-0.1 -0.4,-0.1 l -0.6,2.4 c 0.2,0.1 0.5,0.2 0.8,0.2 0.3,0 0.6,0.1 0.9,0.1 0.9,0 1.5,-0.1 2,-0.3 M 216,46.6 c 0.5,-0.1 0.9,-0.2 1.2,-0.3 L 216.7,44 c -0.2,0.1 -0.4,0.2 -0.7,0.2 -0.2,0 -0.5,0.1 -0.7,0.1 -1.2,0 -1.9,-0.8 -1.9,-2.3 v -6.3 h 3.4 v -2.5 h -3.4 v -3.6 h -2.6 l -0.4,3.6 -2.1,0.1 v 2.3 h 1.9 v 6.3 c 0,0.7 0.1,1.4 0.2,2 0.1,0.6 0.4,1.1 0.7,1.5 0.3,0.4 0.8,0.8 1.3,1 0.5,0.2 1.2,0.3 1.9,0.3 0.8,0 1.2,0 1.7,-0.1 M 205.5,30.4 c 0.4,-0.3 0.5,-0.7 0.5,-1.3 0,-0.6 -0.2,-1 -0.5,-1.3 -0.3,-0.3 -0.8,-0.5 -1.4,-0.5 -0.6,0 -1,0.2 -1.4,0.5 -0.4,0.3 -0.5,0.8 -0.5,1.3 0,0.5 0.2,0.9 0.5,1.3 0.3,0.4 0.8,0.5 1.4,0.5 0.6,-0.1 1,-0.2 1.4,-0.5 m 0.2,2.8 h -3.1 v 13.2 h 3.1 z m -9.2,13.2 c 0.6,-0.2 1.2,-0.5 1.6,-0.9 0.4,-0.4 0.8,-0.8 1,-1.3 0.2,-0.5 0.3,-1 0.3,-1.6 0,-0.6 -0.1,-1.1 -0.3,-1.6 -0.2,-0.4 -0.5,-0.8 -0.9,-1.1 -0.4,-0.3 -0.8,-0.6 -1.2,-0.8 -0.4,-0.2 -0.9,-0.4 -1.3,-0.5 -0.4,-0.1 -0.7,-0.2 -1,-0.4 -0.3,-0.1 -0.6,-0.3 -0.9,-0.4 -0.2,-0.1 -0.4,-0.3 -0.6,-0.5 -0.1,-0.2 -0.2,-0.4 -0.2,-0.7 0,-0.4 0.2,-0.8 0.5,-1 0.3,-0.3 0.8,-0.4 1.5,-0.4 0.5,0 1,0.1 1.5,0.3 0.5,0.2 0.9,0.5 1.4,0.8 l 1.4,-1.9 c -0.5,-0.4 -1.2,-0.8 -1.9,-1.1 -0.7,-0.3 -1.6,-0.5 -2.5,-0.5 -1.5,0 -2.7,0.4 -3.5,1.1 -0.9,0.7 -1.3,1.7 -1.3,2.8 0,0.6 0.1,1 0.3,1.4 0.2,0.4 0.5,0.8 0.9,1.1 0.4,0.3 0.8,0.6 1.2,0.8 0.4,0.2 0.9,0.4 1.3,0.6 0.3,0.1 0.7,0.3 1,0.4 0.3,0.1 0.6,0.3 0.9,0.4 0.3,0.1 0.5,0.3 0.6,0.5 0.2,0.2 0.2,0.5 0.2,0.7 0,0.5 -0.2,0.8 -0.5,1.1 -0.3,0.3 -0.9,0.4 -1.6,0.4 -0.7,0 -1.3,-0.1 -1.9,-0.4 -0.6,-0.3 -1.2,-0.6 -1.8,-1.1 l -1.4,2 c 0.6,0.5 1.4,1 2.3,1.3 0.9,0.3 1.8,0.5 2.7,0.5 0.8,0.3 1.6,0.2 2.2,0 m -13.5,0 v -8.1 c 0.4,-1 0.9,-1.7 1.5,-2.1 0.6,-0.4 1.1,-0.6 1.6,-0.6 0.3,0 0.5,0 0.7,0 0.2,0 0.4,0.1 0.6,0.2 l 0.5,-2.7 c -0.4,-0.2 -0.9,-0.3 -1.5,-0.3 -0.7,0 -1.4,0.2 -2.1,0.7 -0.7,0.5 -1.2,1.1 -1.7,2 h -0.1 l -0.2,-2.3 h -2.6 V 46.4 Z M 169.1,36.1 c 0.6,-0.6 1.3,-0.8 2.1,-0.8 0.9,0 1.6,0.3 2,0.9 0.4,0.6 0.7,1.4 0.7,2.4 H 168 c 0.2,-1.2 0.5,-2 1.1,-2.5 m 4.9,10.2 c 0.8,-0.3 1.5,-0.6 2.1,-1 L 175,43.4 c -0.5,0.3 -1,0.5 -1.5,0.7 -0.5,0.2 -1,0.3 -1.6,0.3 -1.1,0 -2,-0.3 -2.6,-1 -0.7,-0.6 -1.1,-1.5 -1.2,-2.7 h 8.4 c 0,-0.2 0.1,-0.4 0.1,-0.7 0,-0.3 0,-0.6 0,-0.9 0,-0.9 -0.1,-1.8 -0.4,-2.5 -0.2,-0.8 -0.6,-1.4 -1,-2 -0.5,-0.6 -1,-1 -1.7,-1.3 -0.7,-0.3 -1.5,-0.5 -2.4,-0.5 -0.8,0 -1.5,0.2 -2.3,0.5 -0.7,0.3 -1.4,0.8 -1.9,1.4 -0.6,0.6 -1,1.3 -1.4,2.2 -0.4,0.9 -0.5,1.8 -0.5,2.9 0,1.1 0.2,2.1 0.5,2.9 0.3,0.8 0.8,1.6 1.4,2.2 0.6,0.6 1.3,1 2.1,1.4 0.8,0.3 1.6,0.5 2.6,0.5 0.8,-0.1 1.6,-0.2 2.4,-0.5 m -14.9,0.1 4.5,-13.2 h -3 l -2.1,6.9 c -0.2,0.7 -0.4,1.3 -0.6,2 -0.2,0.7 -0.4,1.3 -0.6,2 h -0.1 c -0.2,-0.7 -0.4,-1.4 -0.6,-2 -0.2,-0.6 -0.4,-1.3 -0.6,-2 l -2.1,-6.9 h -3.1 l 4.6,13.2 z m -11,-16 c 0.4,-0.3 0.5,-0.7 0.5,-1.3 0,-0.6 -0.2,-1 -0.5,-1.3 -0.3,-0.3 -0.8,-0.5 -1.4,-0.5 -0.6,0 -1,0.2 -1.4,0.5 -0.4,0.3 -0.5,0.8 -0.5,1.3 0,0.5 0.2,0.9 0.5,1.3 0.3,0.4 0.8,0.5 1.4,0.5 0.6,0 1,-0.2 1.4,-0.5 m 0.2,2.8 h -3.1 v 13.2 h 3.1 z M 132.9,43 c -0.5,-0.7 -0.8,-1.8 -0.8,-3.3 0,-1.4 0.3,-2.5 0.9,-3.2 0.6,-0.7 1.3,-1.1 2.2,-1.1 0.4,0 0.9,0.1 1.3,0.2 0.4,0.1 0.9,0.5 1.4,0.9 v 6.2 c -0.9,1 -1.8,1.5 -2.8,1.5 -0.9,-0.1 -1.7,-0.4 -2.2,-1.2 m 3.5,3.2 c 0.6,-0.3 1.2,-0.8 1.7,-1.2 h 0.1 l 0.2,1.4 h 2.6 v -19 h -3.1 v 4.8 l 0.1,2.1 c -0.5,-0.5 -1,-0.8 -1.6,-1.1 -0.5,-0.3 -1.2,-0.4 -1.9,-0.4 -0.7,0 -1.4,0.2 -2.1,0.5 -0.7,0.3 -1.3,0.8 -1.8,1.4 -0.5,0.6 -0.9,1.3 -1.2,2.2 -0.3,0.9 -0.5,1.8 -0.5,2.9 0,2.2 0.5,3.9 1.5,5.1 1,1.2 2.3,1.8 4,1.8 0.7,0 1.4,-0.2 2,-0.5 M 117.7,43 c -0.6,-0.8 -0.8,-1.9 -0.8,-3.2 0,-1.3 0.3,-2.4 0.8,-3.2 0.5,-0.8 1.3,-1.2 2.3,-1.2 1,0 1.7,0.4 2.3,1.2 0.6,0.8 0.8,1.9 0.8,3.2 0,1.3 -0.3,2.4 -0.8,3.2 -0.6,0.8 -1.3,1.2 -2.3,1.2 -0.9,0 -1.7,-0.4 -2.3,-1.2 m 4.7,3.2 c 0.8,-0.3 1.4,-0.8 2,-1.3 0.6,-0.6 1,-1.3 1.4,-2.2 0.4,-0.9 0.5,-1.8 0.5,-2.9 0,-1.1 -0.2,-2.1 -0.5,-2.9 -0.3,-0.8 -0.8,-1.6 -1.4,-2.2 -0.6,-0.6 -1.2,-1 -2,-1.4 -0.8,-0.4 -1.6,-0.5 -2.4,-0.5 -0.8,0 -1.6,0.2 -2.4,0.5 -0.8,0.3 -1.4,0.8 -2,1.4 -0.6,0.6 -1,1.3 -1.4,2.2 -0.3,0.9 -0.5,1.8 -0.5,2.9 0,1.1 0.2,2.1 0.5,2.9 0.3,0.9 0.8,1.6 1.4,2.2 0.6,0.6 1.2,1 2,1.3 0.8,0.3 1.5,0.5 2.4,0.5 0.8,0 1.6,-0.1 2.4,-0.5 M 110.2,30.4 c 0.4,-0.3 0.5,-0.7 0.5,-1.3 0,-0.6 -0.2,-1 -0.5,-1.3 -0.3,-0.3 -0.8,-0.5 -1.4,-0.5 -0.6,0 -1,0.2 -1.4,0.5 -0.4,0.3 -0.5,0.8 -0.5,1.3 0,0.5 0.2,0.9 0.5,1.3 0.3,0.4 0.8,0.5 1.4,0.5 0.6,-0.1 1.1,-0.2 1.4,-0.5 m 0.2,2.8 h -3.1 v 13.2 h 3.1 z m -16.2,5.2 h 2.6 c 1.3,0 2.3,0.2 3,0.6 0.7,0.4 1,1.1 1,2 0,1 -0.3,1.7 -1.1,2.2 -0.7,0.5 -1.7,0.7 -3,0.7 h -2.6 v -5.5 z m 0,-7.2 h 2.3 c 1.2,0 2,0.2 2.6,0.5 0.6,0.3 0.9,1 0.9,1.8 0,0.8 -0.3,1.4 -0.8,1.8 -0.6,0.5 -1.4,0.7 -2.7,0.7 h -2.2 v -4.8 z m 3,15.2 c 1,0 1.9,-0.1 2.7,-0.3 0.8,-0.2 1.5,-0.5 2.1,-1 0.6,-0.5 1.1,-1 1.4,-1.6 0.3,-0.7 0.5,-1.4 0.5,-2.3 0,-1.2 -0.3,-2.1 -1,-2.8 -0.6,-0.7 -1.4,-1.1 -2.4,-1.4 v -0.1 c 0.8,-0.3 1.4,-0.8 1.8,-1.5 0.4,-0.7 0.7,-1.5 0.7,-2.3 0,-0.8 -0.2,-1.5 -0.5,-2 -0.3,-0.6 -0.8,-1 -1.3,-1.3 -0.6,-0.3 -1.2,-0.6 -2,-0.7 -0.8,-0.1 -1.6,-0.2 -2.5,-0.2 h -5.6 v 17.6 z m -17.8,0 V 35.6 H 82 v -2.5 h -2.6 v -1.4 c 0,-1.5 0.6,-2.2 1.7,-2.2 0.5,0 1,0.1 1.4,0.3 l 0.6,-2.3 c -0.3,-0.1 -0.7,-0.2 -1.1,-0.3 -0.4,-0.1 -0.9,-0.1 -1.3,-0.1 -0.8,0 -1.5,0.1 -2,0.4 -0.6,0.2 -1,0.6 -1.4,1 -0.4,0.4 -0.6,0.9 -0.8,1.5 -0.2,0.6 -0.2,1.2 -0.2,1.9 v 1.4 l -1.8,0.1 v 2.3 h 1.8 v 10.8 h 3.1 z M 64.1,43 c -0.6,-0.8 -0.8,-1.9 -0.8,-3.2 0,-1.3 0.3,-2.4 0.8,-3.2 0.5,-0.8 1.3,-1.2 2.3,-1.2 1,0 1.7,0.4 2.3,1.2 0.6,0.8 0.8,1.9 0.8,3.2 0,1.3 -0.3,2.4 -0.8,3.2 -0.6,0.8 -1.3,1.2 -2.3,1.2 -1,0 -1.8,-0.4 -2.3,-1.2 m 4.6,3.2 c 0.8,-0.3 1.4,-0.8 2,-1.3 0.6,-0.6 1,-1.3 1.4,-2.2 0.4,-0.9 0.5,-1.8 0.5,-2.9 0,-1.1 -0.2,-2.1 -0.5,-2.9 -0.3,-0.8 -0.8,-1.6 -1.4,-2.2 -0.6,-0.6 -1.2,-1 -2,-1.4 -0.8,-0.4 -1.6,-0.5 -2.4,-0.5 -0.8,0 -1.6,0.2 -2.4,0.5 -0.8,0.3 -1.4,0.8 -2,1.4 -0.6,0.6 -1,1.3 -1.4,2.2 -0.4,0.9 -0.5,1.8 -0.5,2.9 0,1.1 0.2,2.1 0.5,2.9 0.3,0.8 0.8,1.6 1.4,2.2 0.6,0.6 1.2,1 2,1.3 0.8,0.3 1.5,0.5 2.4,0.5 0.9,0 1.7,-0.1 2.4,-0.5"
         clip-path="url(#SVGID_4_-6)"
         id="path2415" />
    </g>
  </g>
  <g
     style="fill:none;fill-rule:evenodd;stroke:none;stroke-width:1"
     id="easydb_logo"
     transform="matrix(1.1273911,0,0,1.1273911,64.871542,32.380279)">
    <path
       style="fill:#384256;fill-rule:nonzero"
       inkscape:connector-curvature="0"
       d="m 44.645058,18.250535 c 0.240392,2.17308 1.865679,3.488617 3.881456,3.488617 1.805874,0 2.979692,-0.856351 3.881457,-1.989406 l 2.589201,1.989406 c -1.686264,2.112253 -3.822824,2.937594 -6.109483,2.937594 -4.363413,0 -7.853206,-3.090259 -7.853206,-7.710738 0,-4.622864 3.489793,-7.7131227 7.853206,-7.7131227 4.032728,0 6.770855,2.8767667 6.770855,7.9874417 v 1.010208 z m 7.401738,-2.75392 c -0.03049,-2.142071 -1.41421,-3.48981 -3.67038,-3.48981 -2.13656,0 -3.460477,1.377557 -3.731358,3.48981 z m 15.707585,6.793559 h -0.09029 c -1.022547,1.653068 -2.707638,2.386572 -4.633122,2.386572 -2.678323,0 -5.266351,-1.499211 -5.266351,-4.405795 0,-4.774336 5.476254,-5.111867 9.086829,-5.111867 h 0.902937 v -0.398359 c 0,-1.804539 -1.383721,-2.75392 -3.309205,-2.75392 -1.505677,0 -2.889398,0.61185 -3.85214,1.531414 L 58.696868,11.60964 c 1.594798,-1.6530679 3.850968,-2.3567547 6.138799,-2.3567547 6.169288,0 6.169288,4.5298347 6.169288,6.6110777 V 24.31059 H 67.754381 Z M 67.543305,17.730522 H 66.79164 c -1.985289,0 -5.41645,0.152665 -5.41645,2.264918 0,1.345353 1.354406,1.927386 2.527051,1.927386 2.468419,0 3.641064,-1.315537 3.641064,-3.366963 z m 14.744844,-4.039639 c -0.691861,-0.979198 -1.594798,-1.499211 -2.829593,-1.499211 -0.96157,0 -2.106072,0.457993 -2.106072,1.560038 0,2.632266 7.794574,0.490196 7.794574,6.21272 0,3.488617 -3.279889,4.712316 -6.229092,4.712316 -2.226854,0 -4.152337,-0.58084 -5.626353,-2.262532 l 2.406269,-2.295927 c 0.933425,1.040025 1.896167,1.804539 3.429987,1.804539 1.054209,0 2.407441,-0.520013 2.407441,-1.682885 0,-3.029431 -7.793401,-0.64286 -7.793401,-6.242537 0,-3.275125 2.889398,-4.7445187 5.808113,-4.7445187 1.925484,0 3.97175,0.6118497 5.145568,2.2339077 z m 3.399499,-4.0706494 h 3.972923 l 4.031555,10.1915314 h 0.0598 l 3.61058,-10.1915314 h 3.761844 L 94.293693,27.462869 c -1.053036,2.75392 -2.317148,4.192303 -5.506743,4.192303 -0.932253,0 -1.864506,-0.121654 -2.767443,-0.367348 l 0.450295,-3.306135 c 0.572251,0.215876 1.204307,0.367348 1.836363,0.367348 1.775385,0 2.25617,-0.640474 2.85891,-2.170695 l 0.690688,-1.744905 z M 113.79361,22.1065 h -0.061 c -1.05304,1.774722 -2.94921,2.570246 -4.96498,2.570246 -4.45254,0 -7.13086,-3.364577 -7.13086,-7.710738 0,-4.347353 2.85774,-7.7131227 6.98076,-7.7131227 2.70763,0 4.15233,1.2857197 4.90517,2.2339077 h 0.0903 V 1.1724138 h 3.61057 V 24.31059 h -3.42999 z M 109.49,21.372996 c 2.64784,0 4.24264,-2.112253 4.24264,-4.406988 0,-2.295927 -1.5948,-4.406987 -4.24264,-4.406987 -2.64783,0 -4.24263,2.11106 -4.24263,4.406987 0,2.294735 1.5948,4.406988 4.24263,4.406988 z M 120.4132,1.1724138 h 3.61057 V 11.486793 h 0.0903 c 0.75283,-0.948188 2.19636,-2.2339077 4.90517,-2.2339077 4.12185,0 6.98076,3.3657697 6.98076,7.7131227 0,4.346161 -2.67832,7.710738 -7.13203,7.710738 -2.01578,0 -3.91195,-0.795524 -4.96498,-2.570246 h -0.0598 v 2.20409 h -3.42999 z m 7.73242,11.3866072 c -2.64783,0 -4.24263,2.11106 -4.24263,4.406987 0,2.294735 1.5948,4.406988 4.24263,4.406988 2.64783,0 4.2438,-2.112253 4.2438,-4.406988 0,-2.295927 -1.59597,-4.406987 -4.2438,-4.406987 z M 4.6896552,26.965517 C 1.7654722,24.021067 0,20.110688 0,15.818837 0,11.536318 1.7756699,7.6317722 4.6883805,4.6896552 Z M 10.551724,1.1446111 C 12.40518,0.40656218 14.42484,0 16.538491,0 c 8.996771,0 16.289095,7.3493044 16.289095,16.413793 0,9.064489 -7.292324,16.413793 -16.289095,16.413793 -2.112504,0 -4.131018,-0.405407 -5.984474,-1.142301 z M 26.273435,23.637202 V 9.0956738 L 20.12161,11.103075 v 12.534127 z m -7.890658,0 V 9.0956738 l -6.120875,2.0074012 v 12.534127 z"
       id="path3350" />
  </g>
  <path
     style="opacity:0.63999999;fill:#384256;fill-opacity:1;stroke:none;stroke-width:0.00388571"
     id="path1663-2"
     d="m 38.665792,26.293205 c -0.291435,0.742171 -0.629472,1.663089 -0.975313,2.642295 l -0.380778,1.080238 h -0.47402 c -0.897608,0 -2.265389,0.182635 -3.06196,0.411891 -0.271976,0.07769 -0.501248,0.136014 -0.509022,0.12821 -0.0039,-0.008 -0.139865,-0.198192 -0.299189,-0.423547 -0.543988,-0.777147 -2.214865,-3.069728 -2.2343,-3.069728 -0.03902,0 -0.703317,0.264222 -0.85097,0.341908 -0.08549,0.04252 -0.287534,0.139866 -0.446858,0.217602 -0.159325,0.07383 -0.466267,0.23701 -0.680007,0.36527 -0.213699,0.124358 -0.575072,0.338057 -0.804339,0.47407 -0.40799,0.240912 -0.971442,0.64502 -1.328918,0.952003 l -0.178734,0.159324 0.466267,1.006404 c 0.260321,0.555648 0.66446,1.426063 0.90149,1.9351 l 0.431301,0.9248 -0.295288,0.29919 c -0.761609,0.777141 -1.682523,1.985609 -1.993377,2.622865 -0.06218,0.124358 -0.124358,0.221503 -0.143767,0.221503 -0.01551,0 -0.567304,-0.09324 -1.224005,-0.209848 -1.278405,-0.225354 -3.003667,-0.501248 -3.019215,-0.481824 -0.03101,0.03101 -0.400236,0.963659 -0.543996,1.371669 -0.19814,0.567304 -0.52456,2.168228 -0.66057,3.264008 l -0.0235,0.194291 1.973953,0.757712 1.973949,0.757723 0.008,0.369122 c 0.01551,0.664464 0.08939,1.480463 0.170979,1.900119 0.04252,0.225355 0.104899,0.54788 0.136013,0.711091 0.03101,0.167077 0.101047,0.450709 0.151521,0.633359 0.05443,0.182635 0.09715,0.357467 0.09715,0.388581 0,0.02701 -0.361368,0.310845 -0.804339,0.625586 -0.446858,0.314747 -1.216236,0.870405 -1.713612,1.23567 -0.808232,0.59062 -0.90149,0.672228 -0.882056,0.749939 0.08549,0.341959 0.839311,1.802979 1.344461,2.611215 0.287533,0.45071 0.866513,1.282292 1.025832,1.468804 l 0.116554,0.132111 0.680002,-0.314746 c 0.668346,-0.314747 2.859895,-1.317258 3.093044,-1.41829 l 0.116554,-0.05438 0.524559,0.485726 c 0.656691,0.613936 0.983093,0.85875 1.872917,1.402748 0.536219,0.326402 0.707209,0.45076 0.69943,0.505135 -0.0039,0.03902 -0.08549,0.551762 -0.182635,1.13852 -0.170979,1.033601 -0.45071,2.906527 -0.45071,3.003667 0,0.02701 0.05828,0.06993 0.12821,0.101048 0.874292,0.349712 1.65532,0.590619 2.778298,0.854862 0.749944,0.178733 1.837955,0.36527 1.876808,0.3225 0.06993,-0.07774 1.014177,-2.560696 1.379432,-3.609849 l 0.147669,-0.439105 h 0.590614 c 1.018064,0 1.736929,-0.101047 2.766643,-0.396334 0.47407,-0.132112 0.567309,-0.147669 0.610049,-0.104899 0.02701,0.03102 0.594506,0.823778 1.262862,1.764126 0.668346,0.940348 1.220123,1.717489 1.227887,1.721381 0.0115,0.01551 0.353614,-0.143767 1.402752,-0.660577 0.435203,-0.2137 0.94423,-0.505135 1.340574,-0.765487 0.563417,-0.373023 1.286184,-0.905376 1.480464,-1.091888 0.06993,-0.06218 0.05828,-0.09715 -0.314747,-0.93646 -0.213699,-0.477923 -0.617817,-1.360008 -0.89372,-1.958412 L 45.56695,51.527098 46.021561,51.03752 c 0.621704,-0.660572 1.185152,-1.429945 1.573722,-2.144918 0.09715,-0.186537 0.194291,-0.345811 0.209848,-0.353614 0.01551,-0.008 0.369122,0.04252 0.78492,0.112702 2.172121,0.36527 3.431102,0.563422 3.473842,0.54788 0.08549,-0.03502 0.691661,-1.760239 0.858749,-2.436359 0.03102,-0.139865 0.07769,-0.291435 0.09715,-0.338057 0.03502,-0.08159 0.283632,-1.484351 0.326402,-1.845724 l 0.02351,-0.182635 -0.186537,-0.08159 c -0.240912,-0.1088 -1.865122,-0.722726 -2.968666,-1.126849 l -0.885947,-0.3225 v -0.606162 c 0,-0.695549 -0.03902,-1.091893 -0.159324,-1.74081 -0.06993,-0.384679 -0.260321,-1.220118 -0.330254,-1.457143 -0.01551,-0.04652 0.17098,-0.198193 0.730515,-0.598394 0.843202,-0.602275 2.700577,-1.985609 2.731671,-2.040009 0.02701,-0.04252 -0.23701,-0.664459 -0.555649,-1.297834 -0.450709,-0.905376 -1.03361,-1.818521 -1.647546,-2.591781 l -0.299189,-0.376925 -0.516791,0.225355 c -0.714972,0.314746 -1.865143,0.843207 -2.669492,1.231773 l -0.672233,0.326402 -0.520677,-0.49348 c -0.551762,-0.520677 -1.220118,-1.041375 -1.666976,-1.305607 -0.233158,-0.136014 -0.711085,-0.45076 -0.808236,-0.532333 -0.01551,-0.01551 0.04252,-0.477923 0.12821,-1.033596 0.435202,-2.774421 0.509017,-3.248477 0.497381,-3.260132 -0.008,-0.0039 -0.283632,-0.112702 -0.61393,-0.240912 -0.699431,-0.271977 -1.550412,-0.555649 -1.67475,-0.555649 -0.04652,0 -0.182635,-0.03502 -0.303091,-0.07383 -0.310844,-0.1088 -1.896232,-0.427399 -2.121602,-0.4313 -0.06218,0 -0.101047,0.06218 -0.190388,0.27978 z M 37.96248,36.485473 c 1.072459,0.190389 2.19155,0.714978 2.999786,1.410526 0.955885,0.823769 1.787432,2.327548 2.012807,3.637038 0.08549,0.493479 0.07769,1.348352 -0.01551,1.896237 -0.170979,0.990866 -0.598393,2.040014 -1.10743,2.712242 -0.897608,1.19292 -2.451896,2.129381 -3.963449,2.389722 -0.442956,0.07383 -1.297834,0.07383 -1.764126,0 -0.885947,-0.143767 -1.888464,-0.505135 -2.510178,-0.905371 -1.383319,-0.893716 -2.409151,-2.428585 -2.727779,-4.087787 -0.09324,-0.49348 -0.09324,-1.391098 0,-1.923435 0.349713,-1.977836 1.278405,-3.349504 2.957036,-4.375336 0.442956,-0.271977 1.138514,-0.551762 1.670862,-0.680002 0.749949,-0.178733 1.705839,-0.205946 2.448014,-0.07383 z"
     inkscape:connector-curvature="0" />
  <path
     style="fill:#008669;fill-opacity:1;stroke:none;stroke-width:0.00388571"
     id="path1665-9"
     d="m 36.563614,37.270393 c -0.835428,0.09714 -1.309494,0.240912 -2.001151,0.598394 -1.360003,0.703322 -2.172126,1.725267 -2.584007,3.256245 -0.194291,0.714977 -0.225355,0.936461 -0.229257,1.519322 0,0.551761 0.06218,0.9792 0.2137,1.4416 0.09324,0.287534 0.423547,1.006404 0.462415,1.006404 0.0115,0 0.132111,0.163176 0.260321,0.357466 0.575077,0.866518 1.379432,1.511548 2.366411,1.896237 1.966175,0.769378 4.0295,0.36527 5.583793,-1.088001 0.699431,-0.652809 1.274523,-1.694183 1.468809,-2.650073 0.268124,-1.332805 0.04652,-2.580125 -0.672228,-3.784701 -0.773265,-1.301721 -1.783555,-2.036122 -3.333962,-2.420811 -0.520677,-0.12821 -1.134637,-0.182635 -1.534864,-0.132112 z m 1.340579,1.453261 c 1.212349,0.303091 2.067207,1.014182 2.646181,2.195442 0.264223,0.54788 0.3225,0.831547 0.3225,1.589259 0,0.773265 -0.05828,1.049154 -0.349712,1.647557 -0.2137,0.446858 -0.435203,0.761599 -0.757718,1.084114 -1.126864,1.107436 -2.436354,1.429946 -3.978991,0.979211 -1.002517,-0.291435 -1.795201,-0.983097 -2.312006,-2.016698 -0.49348,-0.986975 -0.540106,-2.226526 -0.12821,-3.170756 0.40799,-0.917036 1.122973,-1.647556 2.040004,-2.078867 0.843203,-0.396334 1.585378,-0.462415 2.517957,-0.229257 z"
     inkscape:connector-curvature="0" />
</svg>
